:SAMPLES-PER-SECOND 30
:FULLY-SPECIFIED
:DEGREES
184
root  -12.8733 40.8274 -8.09174 -170.301 -83.5093 167.378
RightUpLeg  -3.74825 -9.10869 -10.103
RightLeg  5.46325 2.76731 1.55278
RightFoot  2.51596 -0.556429 4.71708
RightToes  0.00048216 0.542163 -0.142577
Spine  3.79717 0.457521 3.40787
Spine1  15.8116 1.14912 -1.9374
HEad  -15.2155 -0.357797 -3.19867
LeftShoulder1  9.47397 -14.0695 -47.0465
LeftArm  -21.8347 18.8744 -27.4711
LeftForeArm  -14.1039 -32.6984 -7.97867
LeftHand  -0.25398 0.0180481 5.50724
RightShoulder  6.31378 10.1508 40.0976
RightArm  -28.0013 -13.0663 36.1416
RightForeArm  -45.7892 40.1367 11.5935
RightHand  -0.397798 4.20209 -5.15684
LeftUpLeg  1.4158 6.24811 2.56364
LeftLeg  7.0576 14.9854 -2.69835
LeftFoot  -5.24427 0.0650378 -0.623961
LeftToes  1.06246e-005 4.65855e-005 -8.18503e-006
185
root  -12.8941 40.8135 -8.30681 -172.764 -83.5114 169.774
RightUpLeg  -3.91573 -8.75511 -9.42599
RightLeg  6.0921 2.3729 1.47781
RightFoot  2.13255 -0.494813 4.30947
RightToes  0.00048216 0.542163 -0.142577
Spine  3.52489 0.719468 3.68294
Spine1  16.2412 1.35929 -1.67351
HEad  -14.9839 1.0405 -3.70436
LeftShoulder1  9.52968 -14.3013 -46.6983
LeftArm  -23.7817 19.428 -27.6685
LeftForeArm  -23.8291 -37.2198 -9.78515
LeftHand  -0.25398 0.0180481 5.50724
RightShoulder  6.38521 10.2909 40.1416
RightArm  -29.7597 -12.6176 35.6768
RightForeArm  -53.6651 44.7952 13.5939
RightHand  -0.378995 4.15882 -4.93256
LeftUpLeg  1.24885 6.86884 3.12713
LeftLeg  7.79404 14.3107 -2.23071
LeftFoot  -5.56969 0.0869825 -1.06055
LeftToes  1.06246e-005 4.65855e-005 -8.18503e-006
186
root  -12.9547 40.8123 -8.54038 -175.204 -83.682 172.328
RightUpLeg  -3.97239 -8.52577 -8.79567
RightLeg  6.3892 1.90654 1.58168
RightFoot  1.79214 -0.435976 3.89146
RightToes  0.00048216 0.542163 -0.142577
Spine  2.89235 0.881051 3.75258
Spine1  16.5059 1.39042 -1.25483
HEad  -14.1928 2.37052 -3.75948
LeftShoulder1  9.4721 -14.343 -46.2969
LeftArm  -26.0082 20.0146 -27.4201
LeftForeArm  -28.4822 -42.6306 -11.8945
LeftHand  -0.25398 0.0180481 5.50724
RightShoulder  6.42964 10.3549 40.2426
RightArm  -30.7192 -12.787 34.6339
RightForeArm  -53.7266 49.8156 15.9793
RightHand  -0.228614 3.37713 -3.31816
LeftUpLeg  1.02561 7.40994 3.71632
LeftLeg  8.29653 13.5221 -1.80604
LeftFoot  -5.77948 0.109601 -1.54076
LeftToes  1.06246e-005 4.65855e-005 -8.18503e-006
187
root  -13.0578 40.8191 -8.80006 -178.102 -84.0908 175.358
RightUpLeg  -3.73201 -8.44333 -8.22987
RightLeg  6.37051 1.32633 1.8834
RightFoot  1.44648 -0.382279 3.49775
RightToes  0.00048216 0.542163 -0.142577
Spine  1.87122 0.913186 3.49688
Spine1  17.0136 1.16594 -0.516385
HEad  -13.3656 3.63561 -3.69099
LeftShoulder1  9.37219 -14.3262 -45.8379
LeftArm  -28.2097 20.574 -26.8072
LeftForeArm  -29.2658 -48.6459 -14.5623
LeftHand  -0.25398 0.0180481 5.50724
RightShoulder  6.48236 10.4038 40.4467
RightArm  -30.8666 -13.1922 33.189
RightForeArm  -51.7185 55.1592 19.2051
RightHand  -0.136912 2.63115 -2.25043
LeftUpLeg  0.874073 7.97897 4.3954
LeftLeg  8.66833 12.4321 -1.40677
LeftFoot  -5.92274 0.135974 -2.12084
LeftToes  1.06246e-005 4.65855e-005 -8.18503e-006
188
root  -13.1941 40.8218 -9.09686 177.356 -84.6162 179.846
RightUpLeg  -3.14282 -8.38411 -7.59889
RightLeg  6.25335 0.637305 2.25708
RightFoot  1.03466 -0.328562 3.0937
RightToes  0.00048216 0.542163 -0.142577
Spine  0.631993 0.886253 2.82745
Spine1  17.9892 0.712057 0.71582
HEad  -12.9561 4.89752 -3.55245
LeftShoulder1  9.24025 -14.3005 -45.2365
LeftArm  -30.2441 21.0129 -26.1626
LeftForeArm  -28.0346 -54.9733 -18.1893
LeftHand  -0.25398 0.0180481 5.50724
RightShoulder  6.47424 10.3722 40.4915
RightArm  -30.7682 -13.4702 31.9566
RightForeArm  -50.5195 60.7285 23.8301
RightHand  -0.174657 2.2741 -2.87569
LeftUpLeg  0.91589 8.73121 5.27816
LeftLeg  9.12403 10.9745 -0.991415
LeftFoot  -6.10438 0.163304 -2.77004
LeftToes  1.06246e-005 4.65855e-005 -8.18503e-006
